<?xml version="1.0" encoding="utf-8"?>
<!-- Generator: Adobe Illustrator 19.2.1, SVG Export Plug-In . SVG Version: 6.00 Build 0)  -->
<svg version="1.1" id="Layer_1" xmlns="http://www.w3.org/2000/svg" xmlns:xlink="http://www.w3.org/1999/xlink" x="0px" y="0px"
	 viewBox="0 0 600 600" style="enable-background:new 0 0 600 600;" xml:space="preserve">
<style type="text/css">
	.st0{fill:#109E49;}
	.st1{fill:#FFFFFF;}
</style>
<g>
	<rect class="st0" width="600" height="600"/>
	<g>
		<path class="st1" d="M403.2,260.8v-30.4l-9.4,28.9c-0.1,0.4-14,42-53.7,60.4c-16.1,7.4-27.9,17.6-35.4,30.3v-74.4
			c35-3.2,60.6-40.3,60.6-73.7l0-80.1l-38.5,38.5L300,115.3l-26.9,44.9l-38.5-38.5v80.1c0,33.4,25.6,70.5,60.6,73.7V350
			c-7.5-12.7-19.3-22.8-35.4-30.3c-39.7-18.3-53.6-59.9-53.7-60.4l-9.4-28.9v30.4c0,7.9-0.3,15.7-0.5,23.2
			c-1.5,44.8-2.8,83.4,49.5,111.9c32,17.4,47.5,61.2,49.4,67v21.7h9.6v-21.7c1.9-5.8,17.4-49.6,49.4-67
			c52.3-28.4,51-67.1,49.5-111.8C403.5,276.6,403.2,268.8,403.2,260.8z M244.2,201.8v-56.9l30.8,30.8l25-41.7l25,41.7l30.8-30.8
			l0,56.9c0,29.8-24.4,64.4-55.8,64.4C268.6,266.3,244.2,231.6,244.2,201.8z M250.4,387.5c-47.1-25.6-46-59.8-44.5-103.1
			c0-0.9,0.1-1.9,0.1-2.8c8.6,15,24.2,35.1,49.9,46.9c39.4,18.2,39.4,49.2,39.4,59.4v50.4C286.7,421.4,272.2,399.4,250.4,387.5z
			 M349.6,387.5c-21.9,11.9-36.4,34-44.8,50.8v-50.4c0-10.2,0-41.3,39.4-59.4c25.6-11.8,41.2-31.9,49.9-46.9c0,1,0.1,1.9,0.1,2.9
			C395.6,327.7,396.7,361.9,349.6,387.5z"/>
	</g>
</g>
</svg>
